<svg height="45.5" viewBox="0 0 345.75 489.31" width="32.2" xmlns="http://www.w3.org/2000/svg"><g stroke="#000" stroke-miterlimit="10"><path d="m338.25 172.94c0 19.96-3.55 39.09-10.04 56.8-20.63 56.33-127.49 215.19-150.83 249.59-2.2 3.24-6.95 3.33-9.26.16-27.06-37.13-160.62-224.53-160.62-306.61 0-92.46 75.87-167.2 168.75-165.35 89.71 1.79 162.04 75.67 162 165.41z" fill="#facd45" stroke-width="15"/><g stroke-width="5"><g fill="#fff"><circle cx="174.01" cy="176.11" r="116.49"/><path d="m256.53 176.11c0 45.58-36.95 82.52-82.52 82.52s-82.52-36.95-82.52-82.52 36.95-82.52 82.52-82.52c24.64 0 46.75 10.79 61.87 27.91 12.85 14.55 20.65 33.67 20.65 54.61z"/><path d="m215.3 214.9c-10.33 11-25.01 17.87-41.29 17.87-31.29 0-56.65-25.36-56.65-56.65s25.36-56.65 56.65-56.65c16.13 0 30.68 6.74 41 17.56"/><path d="m167.56 196.3c-8.34-2.56-14.57-10.2-14.95-19.47s5.49-17.86 13.96-20.92"/><circle cx="174.01" cy="176.11" r="13.51"/></g><circle cx="245.63" cy="244.66" r="4.49"/><circle cx="103.63" cy="242.66" r="4.49"/><circle cx="112.63" cy="96.66" r="4.49"/><circle cx="240.16" cy="97.8" r="4.49"/><path d="m166.63 155.92-.02.01" fill="#fff"/><path d="m166.64 155.92h-.01" fill="#fff"/><path d="m166.21 156.1 50.43-20.77 23.52-10.44" fill="#fff"/><path d="m164.31 195 75.85 30.46" fill="#fff"/><path d="m83.09 104.45 27.46 17.73-10.73 17.75-30.09-15.79"/><path d="m269.91 110.6-29.75 15.12 9.17 17.07 31.12-11.33z"/><path d="m160.51 175.72h27" fill="#fff"/></g></g></svg>