<svg height="45.5" viewBox="0 0 345.75 489.31" width="32.2" xmlns="http://www.w3.org/2000/svg"><g stroke-miterlimit="10"><path d="m338.25 172.94c0 19.96-3.55 39.09-10.04 56.8-20.63 56.33-127.49 215.19-150.83 249.59-2.2 3.24-6.95 3.33-9.26.16-27.06-37.13-160.62-224.53-160.62-306.61 0-92.46 75.87-167.2 168.75-165.35 89.71 1.79 162.04 75.67 162 165.41z" fill="#3e92d0" stroke="#000" stroke-width="15"/><g stroke="#1d1d1b" stroke-width="10"><rect fill="#fff" height="152.98" rx="9.51" width="216.59" x="66.66" y="105.44"/><rect height="12.59" rx="2.34" width="248.59" x="49.88" y="101.1"/><path d="m117.68 94.44h110.4v12.2h-110.4z"/><path d="m126.76 148.22c0-9.79-11.11-17.73-11.11-17.73s-11.11 7.94-11.11 17.73c0 1.3.09 2.56.26 3.78h-.26v58.56h22.22v-58.56h-.26c.17-1.22.26-2.48.26-3.78z"/><path d="m104.54 228.31h22.22v7.38h-22.22z" fill="#fff"/><path d="m186.76 148.22c0-9.79-11.11-17.73-11.11-17.73s-11.11 7.94-11.11 17.73c0 1.3.09 2.56.26 3.78h-.26v58.56h22.22v-58.56h-.26c.17-1.22.26-2.48.26-3.78z"/><path d="m164.54 228.31h22.22v7.38h-22.22z" fill="#fff"/><path d="m246.76 148.22c0-9.79-11.11-17.73-11.11-17.73s-11.11 7.94-11.11 17.73c0 1.3.09 2.56.26 3.78h-.26v58.56h22.22v-58.56h-.26c.17-1.22.26-2.48.26-3.78z"/><path d="m224.54 228.31h22.22v7.38h-22.22z" fill="#fff"/></g></g></svg>