<svg height="45.5" viewBox="0 0 345.75 489.31" width="32.2" xmlns="http://www.w3.org/2000/svg"><g stroke-miterlimit="10"><path d="m338.25 172.94c0 19.96-3.55 39.09-10.04 56.8-20.63 56.33-127.49 215.19-150.83 249.59-2.2 3.24-6.95 3.33-9.26.16-27.06-37.13-160.62-224.53-160.62-306.61 0-92.46 75.87-167.2 168.75-165.35 89.71 1.79 162.04 75.67 162 165.41z" fill="#3e92d0" stroke="#000" stroke-width="15"/><g stroke="#1d1d1b"><rect fill="#facd45" height="37.46" rx="18.73" stroke-width="10" width="245.46" x="50.15" y="121.83"/><path d="m57.95 147.58h228.29v110.83h-228.29z" fill="#fff" stroke-width="10"/><g stroke-width="5"><path d="m190.39 236.8h-35.02c-4.02 0-7.29-3.26-7.29-7.29v-22.47c0-4.02 3.26-7.29 7.29-7.29h35.02c4.02 0 7.29 3.26 7.29 7.29v22.47c0 4.02-3.26 7.29-7.29 7.29z"/><path d="m189.45 184.08v16.68h-35.09v-16.22c0-5.2 3.02-10.19 8.4-13.86 5.03-3.44 13.18-3.44 18.22-.02l.52.36c5.09 3.46 7.95 8.16 7.95 13.06z" fill="#fff"/></g></g></g></svg>