<svg height="45.5" viewBox="0 0 345.75 489.31" width="32.2" xmlns="http://www.w3.org/2000/svg"><g stroke-miterlimit="10"><path d="m338.25 172.94c0 19.96-3.55 39.09-10.04 56.8-20.63 56.33-127.49 215.19-150.83 249.59-2.2 3.24-6.95 3.33-9.26.16-27.06-37.13-160.62-224.53-160.62-306.61 0-92.46 75.87-167.2 168.75-165.35 89.71 1.79 162.04 75.67 162 165.41z" fill="#3e92d0" stroke="#000" stroke-width="15"/><g stroke="#1d1d1b"><g stroke-width="10"><path d="m105.73 79.39h140.24v212.49h-140.24z" fill="#fff"/><path d="m105.73 268.56 14.21 14.21 6.62 6.62" fill="none"/><path d="m105.73 268.56 14.21 14.21 6.62 6.62" fill="none"/><path d="m105.19 218.02 51.83 51.83 24.14 24.14" fill="none"/><path d="m108.46 171.29 82.64 82.64 38.48 38.48" fill="none"/><path d="m106.95 119.78 94.85 94.85 44.17 44.17" fill="none"/><path d="m116.95 79.78 87.12 87.12 40.58 40.57" fill="none"/><path d="m164.32 77.14 56.8 56.81 26.46 26.46" fill="none"/><path d="m216.95 79.78 18.9 18.89 8.8 8.8" fill="none"/><path d="m105.19 103.08 16.17-16.16 7.53-7.53" fill="none"/><path d="m108.06 150.22 45.93-45.93 21.39-21.39" fill="none"/><path d="m106.55 201.73 81.07-81.07 37.76-37.76" fill="none"/><path d="m107.67 250.61 93.45-93.46 43.53-43.52" fill="none"/><path d="m117.67 290.61 86.63-86.63 40.35-40.35" fill="none"/><path d="m165.96 292.32 53.42-53.42 24.88-24.88" fill="none"/><path d="m215.11 293.17 22.15-22.15 10.32-10.32" fill="none"/></g><path d="m105.19 124.17h139.06v107.68h-139.06z" fill="#fff" stroke-width="5"/><path d="m195.92 157.77v19.58h-41.21v-19.04c0-6.11 3.55-11.96 9.86-16.28 5.9-4.04 15.47-4.04 21.39-.02l.62.42c5.97 4.06 9.33 9.58 9.33 15.34z" fill="#fff" stroke-width="5"/><path d="m196.72 211.94h-41.12c-4.73 0-8.56-3.39-8.56-7.57v-23.33c0-4.18 3.83-7.57 8.56-7.57h41.12c4.73 0 8.56 3.39 8.56 7.57v23.33c0 4.18-3.83 7.57-8.56 7.57z" stroke-width="5"/></g></g></svg>