<svg height="45.5" viewBox="0 0 345.75 489.31" width="32.2" xmlns="http://www.w3.org/2000/svg"><g stroke="#000" stroke-miterlimit="10"><path d="m338.25 172.94c0 19.96-3.55 39.09-10.04 56.8-20.63 56.33-127.49 215.19-150.83 249.59-2.2 3.24-6.95 3.33-9.26.16-27.06-37.13-160.62-224.53-160.62-306.61 0-92.46 75.87-167.2 168.75-165.35 89.71 1.79 162.04 75.67 162 165.41z" fill="#d43c3c" stroke-width="15"/><path d="m265.21 174.48-3.1-19.25c-.15-2.09.53-5.17-1.03-6.57l-5.9-5.35c-.08-.07-.1-.18-.06-.28l10.17-24.92s0-.03.01-.04l3-13.77c.67-3.07.16-6.28-1.44-8.99l-7.07-12.03c-2.88-4.89-7.04-8.9-12.03-11.59l-11.59-6.25c-3.44-1.85-7.28-2.83-11.19-2.84l-11.2-.03c-2.48 0-4.95.3-7.35.92l-6.06 1.56c-4.48 1.15-8.36 3.96-10.86 7.86l-13.07 20.46s-.01.01-.02.02l-9.47 11.73s-.09.08-.16.09l-4.82.73c-4.97.76-9.32 3.73-11.83 8.08l-10.98 19.05c-.62 1.08-1.14 2.22-1.55 3.39l-9.15 26.46c-1.4 4.03-3.46 7.81-6.1 11.16l-7.56 9.6c-.8 1.01-1.47 2.12-2 3.29l-5.83 12.83-4.7 11.2-8.82 21.86s0 .03-.01.04l-2.06 9.44s-.03.08-.05.11l-2 2.32c-2.1 2.43-2.02 6.05.17 8.39l5.02 7.69s.02.04.03.06l4.4 14.49 1.32 4.76s0 .03 0 .04l.59 5.24s0 .02 0 .03l1.46 6.14s.04.07.06.13l2.4 10.41c1.09.8.13 3.6 1.05 4.6l6.4 7.26s0 .01.01.02l2.03 1.94s.07.09.07.15c.28 3.11 3.57 3.55 6.69 4.09l16.56 2.88c.06 0 .11 0 .16-.03l17.72-9.94s.04-.03.06-.05l5.77-6.3s.06-.05.1-.07l13.63-4.67s.07-.03.1-.06l14.24-14.9c.05-.06.13-.08.21-.07l2.18.27c5.39-10.36 11.73-20.27 17.2-30.56 1.69-4.57 3.27-9.18 4.93-13.69l-.4-2.12c-.66-3.51.4-7.13 2.84-9.74l46.35-49.63c1.77-1.9 2.67-4.45 2.49-7.04z" fill="#fff" stroke-width="10"/><g fill="none" stroke-width="5"><path d="m96.61 233.47 18.71 42.97c.77 1.77 2.88 2.51 4.59 1.6l21.1-11.18c.67-.35 1.44-.47 2.18-.33l3.51.68c.92.18 1.87-.04 2.61-.6l15.26-11.45c1.23-.92 2.94-.88 4.12.11 2.87 2.41 7.81 6.6 7.98 6.98.18.42.77 3.81 1.02 5.25.07.42.06.86-.03 1.28l-.94 4.62s-.69 3.48-.57 2.78"/><path d="m188.8 284.31c4.27-5.48 8.72-10.5 12.83-16.85"/><path d="m118.95 266.08-8.88-20.38c-.21-.47-.26-.99-.16-1.5l5-24.81c.04-.21.11-.41.2-.6l5.93-12.2c.11-.22.24-.42.41-.6l5.6-6.12c1.37-1.49 3.85-.83 4.3 1.14l1.09 4.82c.03.13.07.26.12.38l4.69 11.71c.07.17.15.33.26.48l6.29 9.21c.21.31.35.67.41 1.04l.06.42c.09.6-.04 1.19-.35 1.69-.2.32-.46.59-.79.8l-8.22 5.22c-.37.24-.68.57-.88.96l-4.86 9.37s-.05.09-.07.14l-3.95 8.94c-.02.05-.04.11-.06.16l-2.44 6.74c-.15.42-.42.8-.77 1.09l-2.46 2.01c-.15.13-.38.07-.46-.11z"/><path d="m173.18 257.37 3.62-9.14 3.9-9.87"/><path d="m144.19 230.15 7.48 6.42 4.68 3.95 6.36 2.9 5.47 1.55 5.35.92 2.44.85"/><path d="m209.39 243.95-13.37.44-9.9-3.67-13.28-4.11-9.83-2.58-9.25-7.15-5.33-6-3.85-8.84-3.92-7.54-3.95-9.07-1.95-4.49-2.63-9.7.88-9.15 1.08-4.48-.17-5.35-1.5-7.49"/><path d="m128.58 199.08 3.71-4.99 4.6-2.64 1.82-2.07 2.06-4.41 1.24-4.05c.23-.74.54-1.45.93-2.11l3.16-5.42 2.56-6.22 1.15-3.22-3.45-7.92-2.85-6.54c-.43-.98-.54-2.08-.33-3.13l1.1-5.31c.3-1.46.4-2.95.3-4.43l-.49-7.06 1.17-2.21"/><path d="m133.07 184.73 4.12-10.01 1.86-3.26c1.55-2.7 2.44-5.73 2.6-8.84l.07-1.37 1.2-4.57 1.47-1.7"/><path d="m188.1 241.46 6.04-5.77 1.59-1.7c1.04-1.11 1.69-2.53 1.86-4.04l.48-4.27 2.67-7.55 1.85-4.44c.5-1.19.8-2.46.88-3.74l.14-2.03c.07-1 .32-1.97.73-2.88l.26-.56c.84-1.86 1.14-3.91.84-5.93-.12-.81-.69-1.48-1.48-1.72l-12.12-3.75-7.6-3.9c-.61-.31-1.26-.55-1.93-.71l-5.98-1.41c-.62-.15-1.22-.37-1.79-.68l-7.89-4.22c-.46-.25-.88-.56-1.25-.93l-6.36-6.43-5.5-5.76c-.45-.47-.84-.98-1.17-1.54l-3.84-6.43-3.99-11.16c-.28-.78-.41-1.6-.4-2.42l.23-13.77"/><path d="m259.38 158.54c-5.64 7.96-13.45 14.53-23.05 18.71-28.03 12.21-60.65-.62-72.86-28.66-10.5-24.12-2.47-51.63 17.83-66.62"/><path d="m257.34 151.04c-4.43 4.58-9.82 8.39-16.03 11.09-25.43 11.07-55.02-.57-66.09-25.99-11.07-25.43.57-55.02 25.99-66.09 25.43-11.07 55.02.57 66.09 25.99.24.56.48 1.12.7 1.69"/><path d="m255.22 131.54c-23.03 5.18-47.24-6.52-57.02-28.97-5.31-12.2-5.4-25.36-1.24-36.97"/><path d="m254.35 144.16c-.66.32-1.33.63-2.01.93-25.43 11.07-55.02-.57-66.09-25.99-7.79-17.9-4.34-37.86 7.27-51.98"/><circle cx="230.23" cy="96.32" r="11.51"/><circle cx="233.31" cy="92.42" r="4.87"/><path d="m227.72 127.32 12.5-25.28"/><path d="m202.86 110.98 17.58-20.72"/></g></g></svg>