<svg height="45.5" viewBox="0 0 345.75 490.31" width="32.2" xmlns="http://www.w3.org/2000/svg"><g stroke-miterlimit="10"><path d="m338.25 173.94c0 19.96-3.55 39.09-10.04 56.8-20.63 56.33-127.49 215.19-150.83 249.59-2.2 3.24-6.95 3.33-9.26.16-27.06-37.13-160.62-224.53-160.62-306.61 0-92.46 75.87-167.2 168.75-165.35 89.71 1.79 162.04 75.67 162 165.41z" fill="#3e91cf" stroke="#000" stroke-width="15"/><path d="m338.25 172.94c0 19.96-3.55 39.09-10.04 56.8-20.63 56.33-127.49 215.19-150.83 249.59-2.2 3.24-6.95 3.33-9.26.16-27.06-37.13-160.62-224.53-160.62-306.61 0-92.46 75.87-167.2 168.75-165.35 89.71 1.79 162.04 75.67 162 165.41z" fill="#3e91cf" stroke="#000" stroke-width="15"/><g fill="#fff" stroke="#1d1d1b" stroke-width="10"><rect height="37.46" rx="18.73" width="245.46" x="50.15" y="123.83"/><path d="m57.95 149.58h228.29v110.83h-228.29z"/></g></g></svg>