<svg height="45.5" viewBox="0 0 345.75 489.31" width="32.2" xmlns="http://www.w3.org/2000/svg"><path d="m338.25 172.94c0 19.96-3.55 39.09-10.04 56.8-20.63 56.33-127.49 215.19-150.83 249.59-2.2 3.24-6.95 3.33-9.26.16-27.06-37.13-160.62-224.53-160.62-306.61 0-92.46 75.87-167.2 168.75-165.35 89.71 1.79 162.04 75.67 162 165.41z" fill="#3e92d0" stroke="#000" stroke-miterlimit="10" stroke-width="15"/><path d="m145.31 150.55c-9.96-2.11-18.16-3.61-26.14-5.59-8.02-1.99-11.35-6.04-8.01-10.77 10.94-15.46 22.06-30.87 33.89-46.01 3.9-4.99 14.03-4.34 17.93 1.11 5.95 8.32 11.54 17.02.95 24.87-1.81 1.35-3.07 3.45-3.09 5.31-.06 5.38 6.28 8.65 14.47 7.88 17.54-1.66 17.46-1.68 20.05-13.25 1.88-8.41 7.5-15.09 21.46-16.51 15.1-1.54 29.84.64 40.39 9.11 3.7 2.97 5.27 8.85 3.54 12.27-3.32 6.54-9.7 12.26-15.07 18.63 7.32 2.74 15.24 5.51 22.88 8.61 13.2 5.35 19.9 11.84 17.79 22.47-2.32 11.71-.7 24-.75 36.03-.03 5.75-2.93 10.11-12.32 11.23-7.62.91-16.45-2.77-21.87-8.43-8.19-8.54-9.6-16.64-3.32-25.28 2.62-3.61 2.1-8.41 2.36-12.72.29-4.74-4.86-6.54-10.51-5.31-5.78 1.25-11.73 3.29-15.68 6.12-20.04 14.37-34.79 30.53-35.14 51.63-.19 11.22-1.97 22.34-3.29 33.48-.48 4.04 1.5 6.65 7.36 9.13 7.25 3.07 14.22 6.78 20.12 10.91 9.27 6.5 6.73 13.51-6 14.7-8.39.79-17.92-.41-26.62-1.91-9.76-1.68-19.11-4.8-28.72-7.11-13.89-3.34-18.12-7.66-16.7-16.88 2.28-14.84 4.73-29.67 6.3-44.59.85-8.11 0-16.41-.03-24.62 0-3.96-3.39-5.12-8.6-4.49-7.49.89-14.96 1.85-22.34 2.97-7.82 1.19-6.38 5.56-5.57 9.27 2.07 9.46 4.31 18.93 7.16 28.35 1.46 4.83-.59 7.46-7.28 9.19-11.45 2.95-22.39 6.6-33.89 9.48-4.61 1.15-10.49 2.13-15.12 1.21-4.74-.94-9.98-3.89-12.41-6.76-1.35-1.6 1.47-5.69 4.33-7.17 13.23-6.84 18.51-14.42 10.26-26.46-8.73-12.75-1.82-32.47 12.29-38.2 7.61-3.09 17.44-4.03 25.98-6.32 14.63-3.92 29.06-8.09 43.48-12.29 1.94-.57 3.27-1.9 5.49-3.24zm-42.8 81.93c-3.4-10.54-7.07-19.65-9.1-28.82-2.1-9.47-.67-15.98 17.86-17.94 3.01-.32 5.87-1 8.83-1.43 26.65-3.91 34.99.52 33.5 18.74-1.64 19.94-4.08 39.81-6.72 59.64-.74 5.59 1.3 9.54 10.06 11.73 11.95 2.99 23.82 6.21 35.94 8.73 4.23.88 9.1-.05 13.68-.16.26-.68.52-1.37.78-2.05-5-2.81-9.44-6.63-15.11-8.25-14.88-4.23-18.79-11.42-18.04-20.33.75-8.96 2.24-17.85 2.67-26.83.89-18.38 6.72-35.56 24.35-49.35 8.76-6.85 19.13-13.08 30.36-18.24 11.4-5.24 26.22-.27 29.73 9.12 2.68 7.17 1.91 13.99-3.29 20.29-4.34 5.25-.73 14.99 6.66 18.95 5 2.68 8.78 2.55 9.91-1.75.45-1.74.45-3.58.45-5.38.01-11.82.28-23.62-.31-35.46-.12-2.44-2.52-5.94-5.54-7.35-9.66-4.51-19.95-8.47-30.27-12.28-10.67-3.94-11.71-6.35-4.82-12.08 5.26-4.37 10.46-8.82 14.81-13.61 3.55-3.9 1.71-7.66-5.27-10.3-18.64-7.06-33.69-3.29-37.25 9.37q-4.39 15.6-29.25 17.6c-2.43.2-5.16.9-7.28.37-4.72-1.18-10.49-2.32-13.45-4.68-11.4-9.08-11.58-11.87-1.88-21.55 4.9-4.88 3.76-9.17-2.54-15.67-10.09 14.13-19.32 26.9-28.32 39.75-2.72 3.88.27 6.12 6.68 6.72 8.72.82 17.46 1.38 26.15 2.39 3.05.35 6.99 1.27 8.59 2.74 1.08.99-.37 3.98-2.16 5.09-7.44 4.65-14.38 10.12-23.46 13.06-14.85 4.81-30.88 8.49-47.06 11.53-15.73 2.96-25.65 8.53-25.19 19.68.27 6.54.99 13.47 4.5 19.69 5.7 10.1 1.14 17.24-8.4 23.76-2.26 1.55-4.74 2.96-7.12 4.44.79.78 1.57 1.56 2.36 2.35 15.05-4.18 30.09-8.37 43.98-12.23z"/><path d="m102.51 232.48c-13.89 3.86-28.94 8.04-43.98 12.23-.79-.78-1.57-1.56-2.36-2.35 2.38-1.48 4.86-2.89 7.12-4.44 9.54-6.52 14.1-13.66 8.4-23.76-3.51-6.21-4.23-13.15-4.5-19.69-.46-11.14 9.46-16.72 25.19-19.68 16.18-3.04 32.21-6.72 47.06-11.53 9.08-2.94 16.02-8.42 23.46-13.06 1.79-1.12 3.24-4.1 2.16-5.09-1.6-1.47-5.54-2.39-8.59-2.74-8.69-1.01-17.44-1.57-26.15-2.39-6.41-.6-9.4-2.84-6.68-6.72 9-12.85 18.23-25.62 28.32-39.75 6.3 6.51 7.44 10.79 2.54 15.67-9.71 9.68-9.53 12.47 1.88 21.55 2.96 2.36 8.73 3.5 13.45 4.68 2.12.53 4.85-.18 7.28-.37q24.87-2 29.25-17.6c3.56-12.66 18.61-16.43 37.25-9.37 6.98 2.65 8.82 6.4 5.27 10.3-4.35 4.78-9.55 9.24-14.81 13.61-6.89 5.73-5.85 8.13 4.82 12.08 10.32 3.81 20.61 7.77 30.27 12.28 3.02 1.41 5.42 4.91 5.54 7.35.59 11.84.32 23.65.31 35.46 0 1.8 0 3.64-.45 5.38-1.12 4.3-4.91 4.43-9.91 1.75-7.39-3.96-10.99-13.7-6.66-18.95 5.2-6.3 5.97-13.12 3.29-20.29-3.5-9.39-18.33-14.36-29.73-9.12-11.22 5.16-21.59 11.38-30.36 18.24-17.63 13.79-23.46 30.98-24.35 49.35-.44 8.98-1.92 17.88-2.67 26.83-.75 8.92 3.15 16.1 18.04 20.33 5.67 1.61 10.11 5.43 15.11 8.25-.26.68-.52 1.37-.78 2.05-4.58.1-9.46 1.03-13.68.16-12.12-2.51-24-5.74-35.94-8.73-8.76-2.19-10.8-6.14-10.06-11.73 2.64-19.84 5.08-39.7 6.72-59.64 1.5-18.22-6.85-22.65-33.5-18.74-2.97.43-5.83 1.11-8.83 1.43-18.52 1.96-19.96 8.47-17.86 17.94 2.03 9.17 5.7 18.28 9.1 28.82z" fill="#fff"/></svg>