<svg height="45.5" viewBox="0 0 345.75 489.31" width="32.2" xmlns="http://www.w3.org/2000/svg"><g stroke="#000" stroke-miterlimit="10"><path d="m338.25 172.94c0 19.96-3.55 39.09-10.04 56.8-20.63 56.33-127.49 215.19-150.83 249.59-2.2 3.24-6.95 3.33-9.26.16-27.06-37.13-160.62-224.53-160.62-306.61 0-92.46 75.87-167.2 168.75-165.35 89.71 1.79 162.04 75.67 162 165.41z" fill="#3e92d0" stroke-width="15"/><g fill="#fff"><rect height="166.51" rx=".87" stroke-width="10" width="225.39" x="62.95" y="94.44"/><path d="m131.63 95.68v162.77" stroke-width="12"/><path d="m65.63 95.68v162.77" stroke-width="12"/><path d="m222.63 95.68v162.77" stroke-width="12"/><path d="m286.63 95.68v162.77" stroke-width="12"/><g stroke-width="6"><path d="m68.22 114.71h214.64"/><path d="m68.22 134.71h214.64"/><path d="m68.22 243.71h214.64"/><path d="m68.22 223.71h214.64"/><path d="m68.22 203.71h214.64"/></g><path d="m162.47 148.61h26.34v9.37h-26.34z" stroke-width="10"/></g></g></svg>