<svg height="45.5" viewBox="0 0 345.75 489.31" width="32.2" xmlns="http://www.w3.org/2000/svg"><g stroke="#000" stroke-miterlimit="10"><path d="m338.25 172.94c0 19.96-3.55 39.09-10.04 56.8-20.63 56.33-127.49 215.19-150.83 249.59-2.2 3.24-6.95 3.33-9.26.16-27.06-37.13-160.62-224.53-160.62-306.61 0-92.46 75.87-167.2 168.75-165.35 89.71 1.79 162.04 75.67 162 165.41z" fill="#d43c3c" stroke-width="15"/><path d="m285.78 215.49s-1.32-4.1-2.2-5.27-3.8-5.71-3.8-5.71l-2.82-2.46c-1.22-1.07-2.7-1.81-4.29-2.15-1.74-.37-3.97-.85-5.04-1.1-1.9-.44-13.9-3.95-15.66-4.39s-5.22-1.95-9.22-2.49c-.52-.07-9.66-.29-9.66-.29l-8.2-1.17s-8.78-4.68-9.37-4.68-5.27-4.83-5.56-5.41c-.29-.59-5.12-6-5.12-6.59s-1.76-5.27-1.76-6 .44-6.59.44-7.46.29-3.07 1.17-4.68 1.02-3.22 1.61-4.68 1.32-3.51 1.32-3.51l1.41-2.11c.41-.62 1.03-1.08 1.74-1.3.82-.26 1.68-.38 2.54-.35l4.56.11 5.12.44 6.59 2.78 5.85 2.2 3.51 1.9s5.27 3.07 6 3.8 5.85 4.39 6.44 5.27 3.51 4.68 3.51 4.68l6.29 4.98 1.05.78c3.41 2.54 7.52 3.97 11.77 4.11 1.67.05 3.33-.29 4.85-.99l3.99-1.85 2.78-3.8 1.17-6.44v-9.51c0-2.78-1.32-8.05-1.32-8.49s-2.2-8.78-2.2-8.78l-2.2-6.88s-2.2-4.98-2.49-6.29c-.29-1.32-1.9-4.68-2.2-5.27-.29-.59-2.93-6.29-2.93-6.29l-3.95-4.54-8.49-12-4.68-5.71-6.88-3.22-5.41-3.07-6.88-2.49-14.49-6-.72-.42c-4.45-2.62-9.38-4.34-14.5-5.05l-3.81-.53-6.1-1.66-7.8-.59-8.78-1.37-12.29-.98s-13.66 1.17-14.63 1.56c-.98.39-9.17.78-9.17.78s-13.66 1.76-14.24 1.76c-.33 0-4.05.51-7.17.95-2.87.4-5.68 1.18-8.35 2.31l-6.14 2.6-12.88 7.41s-12.1 8-12.68 8.39c-.59.39-7.02 6.24-7.8 7.61s-7.22 9.95-8.39 12.49-3.9 10.54-4.29 12.49-2.54 10.93-2.54 10.93l-2.15 9.95s-1.37 5.56-2.24 8.49c-.88 2.93-1.46 9.07-1.46 12v2.42c0 3.12 1.95 5.9 4.89 6.95l2.43.88 11.41-3.8 6.15-3.51 7.61-5.56 9.37-7.61 8.2-6.44s9.95-4.68 10.83-4.98c.35-.12 2.72-.37 5.43-.64 6.23-.61 12.45 1.61 16.74 6.15.5.53.85.96.95 1.22.36.9 2.28 4.04 3.7 6.3 1.01 1.62 1.42 3.54 1.14 5.43-.56 3.83-1.52 10.18-1.92 11.39-.59 1.76-2.05 4.98-3.22 7.61s-5.98 6.13-9.37 8.2c-1 .61-10.24 1.76-10.24 1.76l-16.98 5.56s-13.17 1.46-14.93 1.46-15.51 1.76-16.39 2.34c-.88.59-9.95 5.56-11.71 6.44s-4.83 10.54-5.27 13.76c-.41 2.99 0 11.12 0 13.17s2.34 14.93 2.93 18.15 4.98 11.71 4.98 11.71l2.73 4.25c1.6 2.49 4.26 4.1 7.21 4.37l6.19.56c1.32.12 2.64-.13 3.82-.73l10.98-5.53 1.7-.43c1.58-1.58 3.79-2.38 6.02-2.18l13.9 1.26c3.18.29 5.99 2.2 7.42 5.06l2.38 4.77 1.76 10.24 3.51 10.54 8.12 4.06c3.58 1.79 7.89 1.21 10.87-1.46l6.18-5.53 2.34-1.32 2.49-1.76 2.2-1.02 3.07-2.63 3.95-.88s6.88.88 7.46.88 2.2.88 2.49 1.32 4.39 3.66 4.39 3.66 3.8 4.68 4.39 5.12c.35.26 2.19 1.91 3.6 3.17 1.08.98 2.48 1.53 3.94 1.56l4.76.1 3.95.29 5.71-1.02 4.39-3.95 2.2-4.1 1.61-4.68s1.17-4.39 1.46-4.83.73-4.39 1.02-5.27c.07-.22.13-.61.17-1.06.2-2.19 1.29-4.2 3.04-5.52l1.18-.88 3.07-2.93 3.66-1.02 5.85.59 8.05 3.51 4.68 3.07 8.78 2.78 10.68-1.32 4.39-2.49s7.61-6 8.2-6.73 3.51-5.27 3.51-5.27l1.9-6.59 1.17-5.27v-16.39l-2.05-13.46zm-96.95 11.71h-2.27l-7.61-2.64-4.93-1.95c-1.61-.63-3.39-.66-5.01-.06l-1.47.54-7.08 3.43c-.93.45-1.93.68-2.95.68h-1.76c-3.43 0-6.64-1.9-8.57-5.08-.63-1.04-.68-2.33-.13-3.41l20.7-40.72c.9-1.77 3.41-1.8 4.36-.05l22.32 41.33c.21.39.33.85.33 1.31 0 3.66-2.65 6.63-5.93 6.63z" fill="#fff" stroke-width="10"/></g></svg>