<svg height="45.5" viewBox="0 0 345.75 489.31" width="32.2" xmlns="http://www.w3.org/2000/svg"><g stroke="#000" stroke-miterlimit="10"><path d="m338.25 172.94c0 19.96-3.55 39.09-10.04 56.8-20.63 56.33-127.49 215.19-150.83 249.59-2.2 3.24-6.95 3.33-9.26.16-27.06-37.13-160.62-224.53-160.62-306.61 0-92.46 75.87-167.2 168.75-165.35 89.71 1.79 162.04 75.67 162 165.41z" fill="#facd45" stroke-width="15"/><path d="m102.9 55.83-9.21 2.97h-.02s-2.59 1.09-2.59 1.09c-.05.02-.11.02-.17 0-2.96-.98-4.68 1.86-6.42 4.5l-9.25 14.04s-.05.1-.04.16l2.04 20.21s0 .05.02.08l3.47 7.81s.02.08.02.12l-1.16 14.36s0 .08.02.12l7.98 19c.03.07.02.16-.02.22l-8.24 13.88s-.06.08-.11.1l-15.29 7.13h-.01s-6.48 3.55-6.48 3.55c-2.9 1.59-5.18 4.12-6.44 7.18l-8.49 20.51c-.48 1.17-.12 2.52.88 3.29 2.83 2.17 6.62 2.61 9.87 1.16l31.58-14.16s.02 0 .03-.01l17.12-5.32c1.43-.44 2.96-.5 4.42-.17l13.89 3.19c3.48.8 6.38 3.21 7.8 6.49l27 62.31c1.03 2.38 3.01 4.23 5.46 5.09l18.89 4.84c1.97.69 4.53 2.54 6.44 1.68l7.26-3.27c.1-.04.21-.02.28.05l18.79 19.27s.02.02.03.03l11.43 8.25c2.55 1.84 5.7 2.65 8.82 2.27l13.85-1.68c5.63-.68 10.97-2.9 15.43-6.41l10.35-8.14c3.07-2.41 5.5-5.55 7.07-9.12l4.5-10.26c1-2.27 1.7-4.66 2.09-7.1l.99-6.18c.74-4.57-.29-9.25-2.87-13.09l-13.54-20.16v-.02s-6.99-13.37-6.99-13.37c-.03-.06-.04-.12-.02-.18l1.25-4.71c1.29-4.85.3-10.03-2.69-14.07l-13.08-17.67c-.74-1-1.58-1.93-2.49-2.77l-20.61-18.95c-3.14-2.89-5.78-6.28-7.8-10.04l-5.78-10.76c-.61-1.13-1.35-2.19-2.22-3.15l-9.43-10.46-8.39-8.78-16.52-16.81s-.02-.02-.03-.03l-7.83-5.66s-.06-.06-.08-.09l-1.33-2.76c-1.39-2.89-4.74-4.27-7.76-3.2l-9.06 1.54s-.05 0-.07 0l-15.04-1.75-4.89-.69s-.03 0-.04 0l-5.04-1.55s-.02 0-.03 0l-7.93-1.43c-2.61-1.08 4.4.31 1.58.31l-10.51-1.96c-1.17.68-3.36-1.32-4.63-.88z" fill="#fff" stroke-width="10"/><g fill="none" stroke-width="5"><path d="m173.78 76.61h-46.86c-1.93 0-3.45 1.64-3.3 3.56l1.83 23.81c.06.75-.14 1.5-.57 2.13l-2.02 2.95c-.53.77-.71 1.73-.49 2.64l4.4 18.56c.36 1.5-.37 3.04-1.75 3.73-3.36 1.67-9.17 4.53-9.58 4.53-.46 0-3.8-.81-5.22-1.16-.42-.1-.81-.29-1.16-.54l-3.86-2.71s-2.92-2.02-2.32-1.63"/><path d="m90.36 140.83 8.77 15.85c3.08 1.17 1.79 3.69-.51 3.95l-8.83 1.01-8.05-6.05"/><path d="m119.15 180.07-29.37-18.44"/><path d="m134.95 84.07h22.23c.51 0 1.02.16 1.44.45l20.75 14.49c.17.12.33.26.47.43l8.82 10.31c.16.18.29.39.39.61l3.37 7.58c.82 1.85-.77 3.86-2.76 3.48l-4.85-.92c-.13-.02-.26-.04-.39-.04l-12.61-.38c-.18 0-.36 0-.54.04l-10.96 2.09c-.37.07-.76.06-1.12-.04l-.41-.11c-.58-.16-1.08-.52-1.41-.99-.21-.31-.36-.66-.42-1.04l-1.5-9.62c-.07-.44-.25-.85-.53-1.19l-6.65-8.19s-.07-.08-.1-.12l-6.62-7.2s-.08-.08-.12-.12l-5.2-4.93c-.33-.31-.57-.7-.69-1.14l-.86-3.06c-.05-.19.09-.38.29-.38z"/><path d="m121.29 137.27 6.94 6.96 7.49 7.52"/><path d="m157.82 121.56-8.87 4.29-5.49 2.71-5.19 4.68-3.61 4.39-2.98 4.54-1.75 1.9"/><path d="m119.15 175.83 4.92-12.44 7.32-7.61 9.07-10.54 6.3-7.97 10.24-5.64 7.63-2.49h9.64l8.49-.58h9.88 4.9l9.95 1.46 8.03 4.47 3.67 2.78 4.98 1.97 7.46 1.61"/><path d="m192.54 119.65 3.09 5.4.59 5.27 1.17 2.5 3.22 3.65 3.22 2.76c.59.5 1.11 1.07 1.57 1.69l3.7 5.06 4.68 4.83 2.49 2.34h15.77c1.07 0 2.12.33 3 .95l4.43 3.12c1.22.86 2.54 1.54 3.94 2.04l6.67 2.37 1.56 1.95"/><path d="m203.91 129.5 7.53 7.77 2.24 3.01c1.86 2.5 4.28 4.52 7.06 5.91l1.23.61 3.71 2.93.98 2.02"/><path d="m129.93 157.3 2.88 7.84.92 2.14c.6 1.4 1.64 2.56 2.96 3.32l3.73 2.15 5.85 5.46 3.33 3.47c.89.93 1.93 1.71 3.08 2.3l1.81.94c.89.46 1.68 1.08 2.35 1.82l.41.46c1.36 1.52 3.14 2.61 5.1 3.14.79.21 1.63-.04 2.17-.66l8.28-9.62 6.61-5.41c.53-.44 1.01-.94 1.42-1.49l3.68-4.92c.38-.51.83-.97 1.33-1.37l7.02-5.55c.41-.32.86-.58 1.35-.77l8.44-3.27 7.48-2.75c.61-.22 1.24-.38 1.88-.46l7.43-.95 11.83.79c.82.06 1.63.26 2.38.6l12.53 5.71"/><path d="m177.5 255.75c-5.05-8.35-7.95-18.14-7.95-28.61 0-30.58 24.79-55.36 55.36-55.36 26.3 0 48.32 18.35 53.96 42.94"/><path d="m185.18 256.88c-2.43-5.9-3.77-12.35-3.77-19.13 0-27.74 22.48-50.22 50.22-50.22s50.22 22.48 50.22 50.22-22.48 50.22-50.22 50.22c-.61 0-1.22-.01-1.83-.03"/><path d="m203.91 262.72c4.44-23.19 24.84-40.71 49.32-40.71 13.31 0 25.4 5.17 34.39 13.62"/><path d="m192.69 256.88c-.03-.73-.05-1.47-.05-2.21 0-27.74 22.48-50.22 50.22-50.22 19.52 0 36.45 11.14 44.75 27.41"/><circle cx="246.18" cy="253.87" r="11.51"/><circle cx="248.52" cy="258.25" r="4.87"/><path d="m218.76 239.19 18.19 21.56"/><path d="m243.66 222.92 11.98 24.39"/></g></g></svg>