<svg height="45.5" viewBox="0 0 345.75 489.31" width="32.2" xmlns="http://www.w3.org/2000/svg"><path d="m338.25 172.94c0 19.96-3.55 39.09-10.04 56.8-20.63 56.33-127.49 215.19-150.83 249.59-2.2 3.24-6.95 3.33-9.26.16-27.06-37.13-160.62-224.53-160.62-306.61 0-92.46 75.87-167.2 168.75-165.35 89.71 1.79 162.04 75.67 162 165.41z" fill="#5db670" stroke="#000" stroke-miterlimit="10" stroke-width="15"/><path d="m66.5 95.63h26.7v175.27h-26.7z" fill="#fff" stroke="#1d1d1b" stroke-miterlimit="10" stroke-width="10"/><path d="m283.44 218.44c-59.9 32.3-119.8-32.3-179.71 0v-124.22c59.9-32.3 119.8 32.3 179.71 0z" fill="#fff"/><g stroke="#1d1d1b" stroke-miterlimit="10" stroke-width="10"><path d="m283.44 218.44c-59.9 32.3-119.8-32.3-179.71 0v-124.22c59.9-32.3 119.8 32.3 179.71 0z" fill="none"/><path d="m205.17 183.96-18.75-10.08-18.93 9.74 3.79-20.94-15.11-15 21.09-2.87 9.59-19 9.25 19.17 21.03 3.25-15.37 14.72z" fill="#fff"/></g></svg>