<svg height="45.5" viewBox="0 0 345.75 489.31" width="32.2" xmlns="http://www.w3.org/2000/svg"><g stroke="#000" stroke-miterlimit="10"><path d="m338.25 172.94c0 19.96-3.55 39.09-10.04 56.8-20.63 56.33-127.49 215.19-150.83 249.59-2.2 3.24-6.95 3.33-9.26.16-27.06-37.13-160.62-224.53-160.62-306.61 0-92.46 75.87-167.2 168.75-165.35 89.71 1.79 162.04 75.67 162 165.41z" fill="#3e92d0" stroke-width="15"/><g fill="#fff"><path d="m226.74 284.16h-104.73c-48.15-48.15.32.32-48.54-48.54v-153.41h201.95v153.27z" stroke-width="7"/><path d="m73.47 82.21h23.56v23.56h-23.56z" stroke-width="5"/><path d="m248.47 82.21h23.56v23.56h-23.56z" stroke-width="5"/><path d="m148.98 84.35h47.79v21.41h-47.79z" stroke-width="5"/><path d="m137.76 245.35h70.24v21.41h-70.24z" stroke-width="5"/></g><g fill="#1d1d1b" stroke-width="2"><rect height="9.69" rx="4.85" width="26.21" x="160.59" y="127.12"/><rect height="9.69" rx="4.85" width="26.21" x="160.59" y="187.32"/><rect height="9.69" rx="4.85" width="26.21" x="145.54" y="142.93"/><rect height="9.69" rx="4.85" width="26.21" x="176.4" y="142.93"/><rect height="9.69" rx="4.85" width="26.21" x="145.54" y="173.03"/><rect height="9.69" rx="4.85" width="26.21" x="176.4" y="173.03"/><rect height="9.69" rx="4.85" width="26.21" x="131.25" y="158.73"/><rect height="9.69" rx="4.85" width="26.21" x="161.35" y="158.73"/><rect height="9.69" rx="4.85" width="26.21" x="191.45" y="158.73"/></g></g></svg>