<svg height="45.5" viewBox="0 0 345.75 489.31" width="32.2" xmlns="http://www.w3.org/2000/svg"><path d="m338.25 172.94c0 19.96-3.55 39.09-10.04 56.8-20.63 56.33-127.49 215.19-150.83 249.59-2.2 3.24-6.95 3.33-9.26.16-27.06-37.13-160.62-224.53-160.62-306.61 0-92.46 75.87-167.2 168.75-165.35 89.71 1.79 162.04 75.67 162 165.41z" fill="#3e92d0" stroke="#000" stroke-miterlimit="10" stroke-width="15"/><circle cx="173.98" cy="176.11" fill="#fff" r="116.49" stroke="#000" stroke-miterlimit="10" stroke-width="5"/><path d="m245.08 247.76c-18.24 18.11-43.37 29.29-71.1 29.29-55.75 0-100.94-45.19-100.94-100.94s45.19-100.94 100.94-100.94c30.13 0 57.18 13.2 75.68 34.14.72.82 1.43 1.65 2.13 2.49" fill="#fff"/><g stroke="#000" stroke-miterlimit="10"><path d="m220.72 265.6c-13.97 7.31-29.87 11.45-46.74 11.45-55.75 0-100.94-45.19-100.94-100.94s45.19-100.94 100.94-100.94c25.86 0 49.45 9.73 67.31 25.72" fill="none" stroke-dasharray="0 0 0 30.3" stroke-linecap="round" stroke-width="10"/><g fill="#fff"><path d="m256.5 176.11c0 45.58-36.95 82.52-82.52 82.52s-82.52-36.95-82.52-82.52 36.95-82.52 82.52-82.52c24.64 0 46.75 10.79 61.87 27.91 12.85 14.55 20.65 33.67 20.65 54.61z" stroke-width="5"/><path d="m237.2 216.27h49.56v21.47h-49.56z" stroke-width="7" transform="matrix(.93326734 .35918252 -.35918252 .93326734 99 -78.94)"/><path d="m189.44 94.71-29.43 163.94" stroke-width="5"/><path d="m117.57 115.89 112.71 120.55" stroke-width="5"/><path d="m91.46 170.82 165.04 10.74" stroke-width="5"/><path d="m245.08 170.82h49.56v21.47h-49.56z" stroke-width="7"/><path d="m109.02 227.01 130.65-100.85" stroke-width="5"/><circle cx="173.98" cy="176.11" r="13.51" stroke-width="5"/></g><circle cx="173.92" cy="176.11" r="2.27" stroke-width="5"/><path d="m238.29 125.51h49.56v21.47h-49.56z" fill="#fff" stroke-width="7" transform="matrix(.93575214 -.35265838 .35265838 .93575214 -31.15 101.52)"/></g></svg>