<svg height="45.5" viewBox="0 0 345.75 489.31" width="32.2" xmlns="http://www.w3.org/2000/svg"><g stroke-miterlimit="10"><path d="m338.25 172.94c0 19.96-3.55 39.09-10.04 56.8-20.63 56.33-127.49 215.19-150.83 249.59-2.2 3.24-6.95 3.33-9.26.16-27.06-37.13-160.62-224.53-160.62-306.61 0-92.46 75.87-167.2 168.75-165.35 89.71 1.79 162.04 75.67 162 165.41z" fill="#5db670" stroke="#000" stroke-width="15"/><g stroke="#1d1d1b"><path d="m76.43 230.71h-1.52c-3.57 0-6.55-2.72-6.88-6.27l-1.37-14.8 2.03-19.94c.19-1.88 1.46-3.49 3.24-4.11l1.14-.4c2.35-.82 4.15-2.72 4.85-5.11l2.79-9.47 8.98-30.83 6.54-21.8c.32-1.07.8-2.09 1.43-3.02l8.81-13.04 13.88-12.49c1.14-1.03 2.49-1.8 3.96-2.26l18.85-5.93 13.38-2.46c3.81-.7 7.69-.87 11.55-.52l6.66.62c5.71.53 11.33 1.81 16.71 3.8l7.7 2.85 15.51 6.44 9.95 6 13.9 13.02 4.66 5.83c3.12 3.9 5.58 8.27 7.29 12.96l3.75 10.28c.65 1.79 1.03 3.66 1.11 5.56l.75 17.18 1.02 14.49 2.22 13.47c.37 2.24.97 4.43 1.8 6.54l5.64 14.39 5.76 8.68 5.27 7.8 3.71 7.41c0 1.19-.96 2.15-2.15 2.15h-5.46c-1.28.58-2.04 1.92-1.89 3.32l.13 1.17 1.56 2.44 3.32 4.39 4.49 8.59.92 2.38c.66 1.71.54 3.62-.33 5.23.68 1.27-2.8 3.52-6.44 0-1.27-1.23-14.63 0-14.63 0l-13.07-2.93-13.85-1.76-8.2-.39-1.37-.39h-130.56l-5.85-2.34-6.05-1.76-1.76-2.54-.98-4.29-.39-9.95v-4.29c.82-1.83-.52-3.9-2.52-3.9z" fill="#fff" stroke-width="10"/><g stroke-width="5"><path d="m80.71 230.71 3.51-11.71 5.85-11.9 1.56-11.52 4.3-7.8 8.97-3.9 23.03-.78 16.39 1.17 27.2 2.34 18.06.78 13.27 2.73 15.22 5.46 9.76 7.03 11.71 12.49 7.41 9.36 10.15 11.32 5.85 4.85h4.29" fill="none"/><path d="m81.36 173.71 11.83-3.88 6.17-2.19c1.92-.68 3.94-1.03 5.98-1.03h50.19s12.26.98 13.91 1.1c2.08.15 13.89 1.64 13.89 1.64l10.54 1.65 13.79 2.28c1.72.28 3.37.89 4.87 1.77l8.18 2.82 9.37 5.56 9.16 6.3 8.49 4.39 9.8 2.67" fill="none"/><path d="m111.54 146.8 23.01-8.58 6.06-36.69z" fill="#1d1d1b"/><path d="m147.86 107.09-4.48 31.97 17.76 5.44-11.57-43.79z" fill="#1d1d1b"/><path d="m82.84 237.51 24.79-1.17h24.39l38.99 1.17h30.48 27.51l23.02 3.12h9.76 7.02" fill="none"/></g></g></g></svg>