<svg height="64" viewBox="0 0 237.97 237.97" width="64" xmlns="http://www.w3.org/2000/svg"><g stroke="#000" stroke-miterlimit="10" stroke-width="5"><g fill="#fff"><circle cx="118.99" cy="118.99" r="116.49"/><path d="m201.51 118.99c0 45.58-36.95 82.52-82.52 82.52s-82.52-36.95-82.52-82.52 36.94-82.53 82.52-82.53c24.64 0 46.75 10.79 61.87 27.91 12.85 14.55 20.65 33.67 20.65 54.61z"/><path d="m160.28 157.77c-10.33 11-25.01 17.87-41.29 17.87-31.29 0-56.65-25.36-56.65-56.65s25.36-56.65 56.65-56.65c16.13 0 30.68 6.74 41 17.56"/><path d="m171.34 140.67c-.14.33-.28.66-.42.99"/><path d="m114.79 139.73c-9.45-1.79-16.78-9.94-17.2-20.03-.4-9.53 5.49-17.86 13.96-20.92"/><circle cx="118.99" cy="118.99" r="13.51"/></g><circle cx="190.61" cy="187.53" r="4.49"/><circle cx="48.61" cy="185.53" r="4.49"/><circle cx="57.61" cy="39.53" r="4.49"/><circle cx="185.14" cy="40.67" r="4.49"/><g fill="#fff"><path d="m111.61 98.79-.02.01"/><path d="m111.62 98.79h-.01"/><path d="m111.19 98.97 50.42-20.77 23.53-10.44"/><path d="m198.35 141.66-83.97-1.98"/><path d="m109.05 137.74 76.09 30.59"/></g><path d="m28.07 47.32 27.46 17.73-10.73 17.75-30.09-15.79"/><path d="m214.89 53.47-29.75 15.12 9.17 17.07 31.12-11.33z"/><path d="m105.49 118.59h27" fill="#fff"/></g></svg>