<svg height="64" viewBox="0 0 258.59 173.98" width="64" xmlns="http://www.w3.org/2000/svg"><g stroke="#1d1d1b" stroke-miterlimit="10" stroke-width="10"><rect fill="#fff" height="152.98" rx="9.51" width="216.59" x="21.78" y="16"/><rect height="12.59" rx="2.34" width="248.59" x="5" y="11.66"/><path d="m72.8 5h110.4v12.2h-110.4z"/><path d="m81.88 58.78c0-9.79-11.11-17.73-11.11-17.73s-11.11 7.94-11.11 17.73c0 1.3.09 2.56.26 3.78h-.26v58.56h22.22v-58.56h-.26c.17-1.22.26-2.48.26-3.78z"/><path d="m59.66 138.87h22.22v7.38h-22.22z" fill="#fff"/><path d="m141.88 58.78c0-9.79-11.11-17.73-11.11-17.73s-11.11 7.94-11.11 17.73c0 1.3.09 2.56.26 3.78h-.26v58.56h22.22v-58.56h-.26c.17-1.22.26-2.48.26-3.78z"/><path d="m119.66 138.87h22.22v7.38h-22.22z" fill="#fff"/><path d="m201.88 58.78c0-9.79-11.11-17.73-11.11-17.73s-11.11 7.94-11.11 17.73c0 1.3.09 2.56.26 3.78h-.26v58.56h22.22v-58.56h-.26c.17-1.22.26-2.48.26-3.78z"/><path d="m179.66 138.87h22.22v7.38h-22.22z" fill="#fff"/></g></svg>