<svg height="64" viewBox="0 0 255.46 146.59" width="64" xmlns="http://www.w3.org/2000/svg"><g stroke="#1d1d1b" stroke-miterlimit="10"><rect fill="#facd45" height="37.46" rx="18.73" stroke-width="10" width="245.46" x="5" y="5"/><path d="m12.8 30.76h228.29v110.83h-228.29z" fill="#fff" stroke-width="10"/><g stroke-width="5"><path d="m145.24 119.97h-35.02c-4.02 0-7.29-3.26-7.29-7.29v-22.47c0-4.02 3.26-7.29 7.29-7.29h35.02c4.02 0 7.29 3.26 7.29 7.29v22.47c0 4.02-3.26 7.29-7.29 7.29z"/><path d="m144.3 67.25v16.68h-35.09v-16.22c0-5.2 3.02-10.19 8.4-13.86 5.03-3.44 13.18-3.44 18.22-.02l.52.36c5.09 3.46 7.95 8.16 7.95 13.06z" fill="#fff"/></g></g></svg>