<svg height="64" viewBox="0 0 150.38 223.91" width="64" xmlns="http://www.w3.org/2000/svg"><g stroke="#1d1d1b" stroke-miterlimit="10"><g stroke-width="10"><path d="m5 5.78h140.24v212.49h-140.24z" fill="#fff"/><g fill="none"><path d="m5 194.95 14.21 14.21 6.62 6.62"/><path d="m5 194.95 14.21 14.21 6.62 6.62"/><path d="m4.46 144.41 51.83 51.83 24.13 24.14"/><path d="m7.73 97.68 82.64 82.64 38.48 38.48"/><path d="m6.22 46.17 94.85 94.85 44.17 44.17"/><path d="m16.22 6.17 87.12 87.12 40.57 40.57"/><path d="m63.58 3.54 56.81 56.8 26.46 26.46"/><path d="m116.22 6.17 18.89 18.9 8.8 8.79"/><path d="m4.46 29.47 16.17-16.16 7.53-7.53"/><path d="m7.33 76.61 45.93-45.93 21.38-21.39"/><path d="m5.81 128.12 81.08-81.07 37.75-37.76"/><path d="m6.94 177 93.45-93.46 43.52-43.52"/><path d="m16.94 217 86.63-86.63 40.34-40.35"/><path d="m65.23 218.71 53.42-53.42 24.87-24.88"/><path d="m114.38 219.56 22.15-22.15 10.32-10.32"/></g></g><g stroke-width="5"><path d="m4.46 50.56h139.06v107.68h-139.06z" fill="#fff"/><path d="m95.18 84.16v19.58h-41.21v-19.04c0-6.11 3.55-11.96 9.86-16.28 5.9-4.04 15.47-4.04 21.39-.02l.62.42c5.97 4.06 9.33 9.58 9.33 15.34z" fill="#fff"/><path d="m95.99 138.33h-41.12c-4.73 0-8.56-3.39-8.56-7.57v-23.33c0-4.18 3.83-7.57 8.56-7.57h41.12c4.73 0 8.56 3.39 8.56 7.57v23.33c0 4.18-3.83 7.57-8.56 7.57z"/></g></g></svg>