<svg height="64" viewBox="0 0 40.23 57.86" width="64" xmlns="http://www.w3.org/2000/svg"><g stroke="#000" stroke-miterlimit="10"><path d="m39 25.11-.67-4.18c-.03-.45.11-1.12-.22-1.43l-1.28-1.16s-.02-.04-.01-.06l2.21-5.41s0 0 0 0l.65-2.99c.15-.67.03-1.36-.31-1.95l-1.53-2.61c-.62-1.06-1.53-1.93-2.61-2.52l-2.52-1.36c-.75-.4-1.58-.61-2.43-.62h-2.43c-.54 0-1.07.06-1.59.19l-1.32.34c-.97.25-1.81.86-2.36 1.71l-2.84 4.44s0 0 0 0l-2.06 2.55s-.02.02-.03.02l-1.05.16c-1.08.16-2.02.81-2.57 1.75l-2.38 4.13c-.14.23-.25.48-.34.74l-1.99 5.74c-.3.88-.75 1.69-1.32 2.42l-1.64 2.08c-.17.22-.32.46-.43.71l-1.26 2.78-1.02 2.43-1.91 4.74s0 0 0 0l-.45 2.05s0 .02-.01.02l-.43.5c-.45.53-.44 1.31.04 1.82l1.09 1.67s0 0 0 .01l.95 3.14.29 1.03s0 0 0 0l.13 1.14s0 0 0 0l.32 1.33s0 .02.01.03l.52 2.26c.24.17.03.78.23 1l1.39 1.57s0 0 0 0l.44.42s.01.02.02.03c.06.67.78.77 1.45.89l3.59.62s.02 0 .04 0l3.85-2.16s0 0 .01-.01l1.25-1.37s.01-.01.02-.01l2.96-1.01s.02 0 .02-.01l3.09-3.23s.03-.02.05-.02l.47.06c1.17-2.25 2.54-4.4 3.73-6.63.37-.99.71-1.99 1.07-2.97l-.09-.46c-.14-.76.09-1.55.62-2.11l10.06-10.77c.38-.41.58-.97.54-1.53z" fill="#fff"/><g fill="none"><path d="m1.96 37.19 4.28 9.83c.18.4.64.58 1.02.38l4.61-2.47c.15-.08.31-.1.48-.07l.78.17c.2.04.41 0 .57-.13l3.32-2.55c.27-.21.64-.19.91.04.64.56 1.75 1.53 1.78 1.61.04.1.18.87.24 1.2.02.1.02.2 0 .29l-.19 1.05s-.14.79-.12.63"/><path d="m7.25 44.99-1.93-4.42c-.04-.1-.06-.22-.03-.32l1.08-5.38s.02-.09.04-.13l1.29-2.65s.05-.09.09-.13l1.22-1.33c.3-.32.84-.18.93.25l.24 1.05s.01.06.03.08l1.02 2.54s.03.07.06.1l1.36 2c.05.07.08.15.09.23v.09c.03.13 0 .26-.06.37-.04.07-.1.13-.17.17l-1.78 1.13c-.08.05-.15.12-.19.21l-1.05 2.03s-.01.02-.01.03l-.86 1.94s0 .02-.01.03l-.53 1.46c-.03.09-.09.17-.17.24l-.53.44s-.08.02-.1-.02z"/><path d="m19.02 43.1.79-1.99.85-2.14"/><path d="m12.73 37.19 1.62 1.39 1.02.86 1.38.63 1.19.34 1.16.19.53.19"/><path d="m27.57 40.79-3.01.1-2.23-.82-2.98-.92-2.22-.57-2.08-1.6-1.2-1.35-.86-1.98-.88-1.7-.89-2.03-.44-1.01-.58-2.18.2-2.05.24-1.01-.03-1.2-.34-1.68"/><path d="m9.34 30.45.81-1.08 1-.57.4-.45.45-.96.27-.88c.05-.16.12-.31.2-.46l.69-1.18.56-1.35.25-.7-.75-1.72-.62-1.42c-.09-.21-.12-.45-.07-.68l.24-1.15c.07-.32.09-.64.06-.96l-.11-1.53.25-.48"/><path d="m10.32 27.33.89-2.17.4-.71c.34-.59.53-1.24.56-1.92l.02-.3.26-.99.32-.37"/><path d="m22.26 39.64 1.31-1.25.35-.37c.23-.24.37-.55.4-.88l.1-.93.58-1.64.4-.96c.11-.26.17-.53.19-.81l.03-.44c.01-.22.07-.43.16-.63l.06-.12c.18-.4.25-.85.18-1.29-.03-.18-.15-.32-.32-.37l-2.63-.81-1.65-.85c-.13-.07-.27-.12-.42-.15l-1.3-.31c-.14-.03-.27-.08-.39-.15l-1.71-.92c-.1-.05-.19-.12-.27-.2l-1.38-1.4-1.19-1.25c-.1-.1-.18-.21-.25-.33l-.83-1.4-.87-2.42c-.06-.17-.09-.35-.09-.52l.05-2.99"/><path d="m38.51 21.1c-1.31 1.76-3.11 3.22-5.3 4.17-6.4 2.79-13.71.15-16.34-5.88-2.26-5.19-.31-11.2 4.35-14.55"/><path d="m36.62 18.66c-.97.96-2.14 1.76-3.49 2.35-5.5 2.39-11.76.18-13.99-4.94s.42-11.21 5.91-13.6 11.76-.18 13.99 4.94c.05.11.1.23.14.34"/><path d="m37.97 15.42c-5.63 1.39-11.37-.97-13.5-5.87-1.16-2.67-1.05-5.6.08-8.23"/><path d="m36.64 18.53c-.14.07-.29.14-.44.2-5.52 2.4-11.94-.12-14.34-5.64-1.69-3.88-.94-8.22 1.58-11.28"/><circle cx="31.4" cy="8.14" r="2.5"/><circle cx="32.07" cy="7.3" r="1.06"/><path d="m30.86 14.87 2.71-5.48"/><path d="m25.46 11.33 3.82-4.5"/></g></g></svg>