<svg height="64" viewBox="0 0 63.36 53.47" width="64" xmlns="http://www.w3.org/2000/svg"><path d="m26.57 17.1c-2.59-.55-4.72-.94-6.8-1.46-2.09-.52-2.95-1.57-2.08-2.8 2.85-4.02 5.74-8.03 8.81-11.97 1.01-1.3 3.65-1.13 4.66.29 1.55 2.16 3 4.43.25 6.47-.47.35-.8.9-.8 1.38-.02 1.4 1.63 2.25 3.76 2.05 4.56-.43 4.54-.44 5.22-3.45.49-2.19 1.95-3.92 5.58-4.29 3.93-.4 7.76.17 10.51 2.37.96.77 1.37 2.3.92 3.19-.86 1.7-2.52 3.19-3.92 4.84 1.9.71 3.96 1.43 5.95 2.24 3.43 1.39 5.18 3.08 4.63 5.84-.6 3.05-.18 6.24-.2 9.37 0 1.5-.76 2.63-3.2 2.92-1.98.24-4.28-.72-5.69-2.19-2.13-2.22-2.5-4.33-.86-6.57.68-.94.55-2.19.61-3.31.07-1.23-1.26-1.7-2.73-1.38-1.5.33-3.05.85-4.08 1.59-5.21 3.74-9.05 7.94-9.14 13.43-.05 2.92-.51 5.81-.86 8.71-.12 1.05.39 1.73 1.91 2.37 1.89.8 3.7 1.76 5.23 2.84 2.41 1.69 1.75 3.51-1.56 3.82-2.18.2-4.66-.11-6.92-.5-2.54-.44-4.97-1.25-7.47-1.85-3.61-.87-4.71-1.99-4.34-4.39.59-3.86 1.23-7.72 1.64-11.6.22-2.11 0-4.27 0-6.4 0-1.03-.88-1.33-2.24-1.17-1.95.23-3.89.48-5.81.77-2.03.31-1.66 1.45-1.45 2.41.54 2.46 1.12 4.92 1.86 7.37.38 1.26-.15 1.94-1.89 2.39-2.98.77-5.82 1.72-8.81 2.46-1.2.3-2.73.55-3.93.31-1.23-.24-2.6-1.01-3.23-1.76-.35-.42.38-1.48 1.13-1.87 3.44-1.78 4.81-3.75 2.67-6.88-2.27-3.32-.47-8.44 3.2-9.93 1.98-.8 4.54-1.05 6.76-1.64 3.8-1.02 7.56-2.1 11.31-3.2.51-.15.85-.49 1.43-.84zm-11.13 21.31c-.88-2.74-1.84-5.11-2.37-7.5-.55-2.46-.17-4.16 4.64-4.67.78-.08 1.53-.26 2.3-.37 6.93-1.02 9.1.14 8.71 4.87-.43 5.19-1.06 10.35-1.75 15.51-.19 1.45.34 2.48 2.62 3.05 3.11.78 6.19 1.62 9.35 2.27 1.1.23 2.37-.01 3.56-.04.07-.18.14-.36.2-.53-1.3-.73-2.46-1.72-3.93-2.14-3.87-1.1-4.89-2.97-4.69-5.29.2-2.33.58-4.64.69-6.98.23-4.78 1.75-9.25 6.33-12.84 2.28-1.78 4.98-3.4 7.89-4.74 2.97-1.36 6.82-.07 7.73 2.37.7 1.87.5 3.64-.86 5.28-1.13 1.37-.19 3.9 1.73 4.93 1.3.7 2.28.66 2.58-.45.12-.45.12-.93.12-1.4 0-3.07.07-6.14-.08-9.22-.03-.63-.66-1.54-1.44-1.91-2.51-1.17-5.19-2.2-7.87-3.19-2.78-1.03-3.05-1.65-1.25-3.14 1.37-1.14 2.72-2.29 3.85-3.54.92-1.02.44-1.99-1.37-2.68-4.85-1.84-8.76-.86-9.69 2.44q-1.14 4.06-7.61 4.58c-.63.05-1.34.24-1.89.1-1.23-.31-2.73-.6-3.5-1.22-2.97-2.36-3.01-3.09-.49-5.6 1.27-1.27.98-2.38-.66-4.08-2.62 3.68-5.02 7-7.37 10.34-.71 1.01.07 1.59 1.74 1.75 2.27.21 4.54.36 6.8.62.79.09 1.82.33 2.23.71.28.26-.1 1.03-.56 1.32-1.93 1.21-3.74 2.63-6.1 3.4-3.86 1.25-8.03 2.21-12.24 3-4.09.77-6.67 2.22-6.55 5.12.07 1.7.26 3.5 1.17 5.12 1.48 2.63.3 4.48-2.18 6.18-.59.4-1.23.77-1.85 1.15.2.2.41.41.61.61 3.91-1.09 7.83-2.18 11.44-3.18z"/><path d="m15.44 38.41c-3.61 1-7.53 2.09-11.44 3.18-.2-.2-.41-.41-.61-.61.62-.38 1.26-.75 1.85-1.15 2.48-1.69 3.67-3.55 2.18-6.18-.91-1.62-1.1-3.42-1.17-5.12-.12-2.9 2.46-4.35 6.55-5.12 4.21-.79 8.38-1.75 12.24-3 2.36-.77 4.17-2.19 6.1-3.4.46-.29.84-1.07.56-1.32-.42-.38-1.44-.62-2.23-.71-2.26-.26-4.53-.41-6.8-.62-1.67-.16-2.44-.74-1.74-1.75 2.34-3.34 4.74-6.66 7.37-10.34 1.64 1.69 1.93 2.81.66 4.08-2.52 2.52-2.48 3.24.49 5.6.77.61 2.27.91 3.5 1.22.55.14 1.26-.05 1.89-.1q6.47-.52 7.61-4.58c.93-3.29 4.84-4.27 9.69-2.44 1.82.69 2.29 1.66 1.37 2.68-1.13 1.24-2.48 2.4-3.85 3.54-1.79 1.49-1.52 2.12 1.25 3.14 2.68.99 5.36 2.02 7.87 3.19.78.37 1.41 1.28 1.44 1.91.15 3.08.08 6.15.08 9.22 0 .47 0 .95-.12 1.4-.29 1.12-1.28 1.15-2.58.45-1.92-1.03-2.86-3.56-1.73-4.93 1.35-1.64 1.55-3.41.86-5.28-.91-2.44-4.77-3.73-7.73-2.37-2.92 1.34-5.62 2.96-7.89 4.74-4.59 3.59-6.1 8.06-6.33 12.84-.11 2.34-.5 4.65-.69 6.98-.19 2.32.82 4.19 4.69 5.29 1.47.42 2.63 1.41 3.93 2.14-.07.18-.14.36-.2.53-1.19.03-2.46.27-3.56.04-3.15-.65-6.24-1.49-9.35-2.27-2.28-.57-2.81-1.6-2.62-3.05.69-5.16 1.32-10.33 1.75-15.51.39-4.74-1.78-5.89-8.71-4.87-.77.11-1.52.29-2.3.37-4.82.51-5.19 2.2-4.64 4.67.53 2.38 1.48 4.75 2.37 7.5z" fill="#fff"/></svg>