<svg height="64" viewBox="0 0 208.95 208.95" width="64" xmlns="http://www.w3.org/2000/svg"><g stroke="#000" stroke-miterlimit="10"><g fill="#fff"><path d="m156.77 205.45h-104.73c-48.15-48.15.32.32-48.54-48.54v-153.41h201.95v153.27z" stroke-width="7"/><path d="m3.5 3.5h23.56v23.56h-23.56z" stroke-width="5"/><path d="m178.5 3.5h23.56v23.56h-23.56z" stroke-width="5"/><path d="m79.01 5.65h47.79v21.41h-47.79z" stroke-width="5"/><path d="m67.78 166.65h70.24v21.41h-70.24z" stroke-width="5"/></g><g fill="#1d1d1b" stroke-width="2"><rect height="9.69" rx="4.85" width="26.21" x="90.62" y="48.42"/><rect height="9.69" rx="4.85" width="26.21" x="90.62" y="108.62"/><rect height="9.69" rx="4.85" width="26.21" x="75.57" y="64.22"/><rect height="9.69" rx="4.85" width="26.21" x="106.42" y="64.22"/><rect height="9.69" rx="4.85" width="26.21" x="75.57" y="94.32"/><rect height="9.69" rx="4.85" width="26.21" x="106.42" y="94.32"/><rect height="9.69" rx="4.85" width="26.21" x="61.27" y="80.02"/><rect height="9.69" rx="4.85" width="26.21" x="91.37" y="80.02"/><rect height="9.69" rx="4.85" width="26.21" x="121.47" y="80.02"/></g></g></svg>