<svg height="64" viewBox="0 0 243.14 237.97" width="64" xmlns="http://www.w3.org/2000/svg"><circle cx="118.99" cy="118.99" fill="#fff" r="116.49" stroke="#000" stroke-miterlimit="10" stroke-width="5"/><path d="m190.09 190.63c-18.24 18.11-43.37 29.29-71.1 29.29-55.75 0-100.94-45.19-100.94-100.94s45.19-100.93 100.94-100.93c30.13 0 57.18 13.2 75.68 34.14.72.82 1.43 1.65 2.13 2.49" fill="#fff"/><g stroke="#000" stroke-miterlimit="10"><path d="m165.72 208.47c-13.97 7.31-29.87 11.45-46.74 11.45-55.75 0-100.94-45.19-100.94-100.94s45.2-100.93 100.95-100.93c25.86 0 49.45 9.73 67.31 25.72" fill="none" stroke-dasharray="0 0 0 30.3" stroke-linecap="round" stroke-width="10"/><g fill="#fff"><path d="m201.51 118.99c0 45.58-36.95 82.52-82.52 82.52s-82.52-36.95-82.52-82.52 36.94-82.53 82.52-82.53c24.64 0 46.75 10.79 61.87 27.91 12.85 14.55 20.65 33.67 20.65 54.61z" stroke-width="5"/><path d="m182.21 159.14h49.56v21.47h-49.56z" stroke-width="7" transform="matrix(.93326734 .35918252 -.35918252 .93326734 74.81 -63)"/><path d="m134.44 37.58-29.42 163.94" stroke-width="5"/><path d="m62.57 58.76 112.71 120.56" stroke-width="5"/><path d="m36.46 113.7 165.04 10.74" stroke-width="5"/><path d="m190.09 113.7h49.56v21.47h-49.56z" stroke-width="7"/><path d="m54.02 169.88 130.65-100.85" stroke-width="5"/><circle cx="118.99" cy="118.99" r="13.51" stroke-width="5"/></g><circle cx="118.93" cy="118.99" r="2.27" stroke-width="5"/><path d="m183.29 68.38h49.56v21.47h-49.56z" fill="#fff" stroke-width="7" transform="matrix(.93575214 -.35265838 .35265838 .93575214 -14.53 78.46)"/></g></svg>